<?xml version="1.0" encoding="UTF-8" standalone="no"?>
<svg xmlns="http://www.w3.org/2000/svg" name="wind" viewBox="0 0 24 24"><title>Wind</title><path d="M6 8.67h5.354c1.457 0 2.234-1.158 2.234-2.222S12.687 4.4 11.354 4.4c-.564 0-1.023.208-1.366.488M3 11.67h15.54c1.457 0 2.235-1.158 2.235-2.222S19.873 7.4 18.54 7.4c-.747 0-1.311.365-1.663.78M6 15.4h9.389c1.457 0 2.234 1.159 2.234 2.223 0 1.064-.901 2.048-2.234 2.048a2.153 2.153 0 0 1-1.63-.742" stroke-width="2" stroke="currentColor" stroke-linecap="round" fill="none"></path></svg>